<svg height="60" width="120" xmlns="http://www.w3.org/2000/svg"><g fill="#4e4e4e" transform="matrix(.436768 0 0 .436768 -687.710357 -895.405116)"><path d="m5.626 17.928c0 5.146-.393 6.826-1.44 8.067-1.142 1.055-2.636 1.639-4.186 1.635l.393 3.06c2.402.033 4.73-.835 6.533-2.437 1.875-1.953 2.53-4.653 2.53-8.797v-19.456h-3.839v17.954z" transform="translate(1688.87 2106.23)"/><path d="m17.74 15.623.174 5.85h-3.358l-.218-3.52h-.087a7.96 7.96 0 0 1 -2.953 2.948c-1.226.7-2.616 1.058-4.025 1.037-3.313.002-7.273-1.864-7.273-9.394v-12.544h3.838v11.902c0 4.082 1.22 6.826 4.7 6.826 1.092-.02 2.153-.365 3.052-.99s1.594-1.505 2-2.528c.233-.64.35-1.316.35-1.997v-13.195h3.838v15.605z" transform="translate(1705.38 2106.19)"/><path d="m.174 7.536-.174-7.036h3.445l.174 3.677h.087a8.31 8.31 0 0 1 3.171-3.137 8.22 8.22 0 0 1 4.323-1.034c5.094 0 8.932 4.398 8.932 10.908 0 7.715-4.614 11.524-9.595 11.524a7.33 7.33 0 0 1 -3.687-.819 7.4 7.4 0 0 1 -2.803-2.55h-.087v11.656h-3.794v-23.225zm3.794 5.718a8.87 8.87 0 0 0 .174 1.592 5.98 5.98 0 0 0 2.091 3.285 5.89 5.89 0 0 0 3.657 1.281c4.056 0 6.402-3.37 6.402-8.286 0-4.302-2.224-7.98-6.27-7.98-1.36.038-2.67.535-3.72 1.4s-1.78 2.08-2.072 3.42c-.154.517-.242 1.052-.262 1.592v3.677z" transform="translate(1730.18 2105.67)"/><path d="m4.16 0 4.614 12.676 1.352 4.398h.087l1.352-4.478 4.188-12.586h4.056l-5.749 15.296c-2.747 7.354-4.614 11.128-7.23 13.434-1.322 1.24-2.943 2.11-4.7 2.525l-.96-3.28c1.23-.413 2.37-1.06 3.358-1.91 1.396-1.176 2.5-2.664 3.227-4.346a2.83 2.83 0 0 0 .305-.932c-.034-.352-.123-.696-.262-1.02l-7.798-19.767h4.187z" transform="translate(1752.94 2106.21)"/><path d="m7.022 0v6.158h5.486v2.972h-5.486v11.57c0 2.64.74 4.17 2.878 4.17.75.012 1.498-.077 2.224-.264l.174 2.93c-1.09.388-2.245.567-3.402.528-.767.047-1.535-.074-2.25-.357s-1.36-.72-1.893-1.28c-1.1-1.152-1.483-3.06-1.483-5.586v-11.711h-3.27v-2.972h3.27v-5.146z" transform="translate(1775.8 2100.04)"/><path d="m3.63 11.928c.087 5.278 3.402 7.45 7.23 7.45 2.002.063 3.993-.315 5.835-1.108l.654 2.79c-2.207.935-4.585 1.387-6.978 1.328-6.491 0-10.371-4.346-10.371-10.82s3.75-11.568 9.89-11.568c6.882 0 8.722 6.158 8.722 10.107-.006.61-.05 1.217-.13 1.82h-14.827zm11.243-2.79c.044-2.48-1.003-6.342-5.312-6.342-3.88 0-5.574 3.633-5.88 6.342h11.2z" transform="translate(1791.75 2105.71)"/><path d="m.174 7.18-.174-6.696h3.358l.13 4.214h.174c.961-2.885 3.272-4.698 5.838-4.698.368-.005.734.04 1.1.132v3.678c-.43-.094-.87-.14-1.308-.132-2.704 0-4.614 2.085-5.137 5.005a11.14 11.14 0 0 0 -.174 1.821v11.436h-3.807z" transform="translate(1815.77 2105.72)"/></g><g transform="matrix(.808856 0 0 .808856 -1315.181316 -1683.405654)"><path d="m5.894 2.844c.025.588-.123 1.17-.425 1.672s-.746.904-1.275 1.152-1.12.333-1.695.243a2.94 2.94 0 0 1 -1.543-.748 2.98 2.98 0 0 1 -.871-1.486c-.138-.57-.105-1.17.095-1.724a2.97 2.97 0 0 1 1.028-1.379 2.93 2.93 0 0 1 1.615-.571c.78-.033 1.542.247 2.118.78s.918 1.274.952 2.06z" fill="#767677" transform="translate(1669.3 2093.31)"/><g fill="#f37726"><path d="m18.265 7.134c-7.85 0-14.705-2.876-18.265-7.134 1.325 3.82 3.796 7.13 7.07 9.473s7.187 3.6 11.2 3.6 7.927-1.258 11.2-3.6 5.743-5.653 7.068-9.473c-3.568 4.258-10.423 7.134-18.273 7.134z" transform="translate(1639.74 2123.98)"/><path d="m18.273 5.94c7.85 0 14.706 2.877 18.265 7.134-1.325-3.82-3.796-7.13-7.07-9.473s-7.186-3.601-11.198-3.601-7.927 1.258-11.2 3.6-5.745 5.653-7.07 9.473c3.567-4.248 10.423-7.133 18.273-7.133z" transform="translate(1639.73 2097.48)"/></g><path d="m7.428 3.583a3.77 3.77 0 0 1 -.536 2.109c-.382.634-.94 1.14-1.608 1.452s-1.4.42-2.137.306-1.404-.442-1.945-.944-.922-1.153-1.097-1.874a3.78 3.78 0 0 1 .122-2.173c.253-.696.705-1.3 1.3-1.74s1.303-.686 2.037-.716c.983-.04 1.94.314 2.666.985a3.76 3.76 0 0 1 1.198 2.596z" fill="#989798" transform="translate(1639.8 2135.81)"/><path d="m2.275 4.396c-.43.02-.858-.092-1.227-.318s-.663-.558-.845-.951-.243-.835-.177-1.265.257-.832.549-1.152.672-.546 1.09-.65.86-.078 1.265.072.757.417 1.01.77a2.21 2.21 0 0 1 -.156 2.784c-.39.43-.934.684-1.51.71z" fill="#6f7070" transform="translate(1638.36 2098.06)"/></g></svg>